<svg xmlns="http://www.w3.org/2000/svg" xmlns:xlink="http://www.w3.org/1999/xlink" version="1.1" id="Layer_1" x="0px" y="0px" width="100px" height="87.5px" viewBox="0 0 100 87.5" style="enable-background:new 0 0 100 87.5;" xml:space="preserve">
<path style="fill:#010101;" d="M12.5,6.25c0,3.455-2.795,6.25-6.25,6.25C2.795,12.5,0,9.705,0,6.25C0,2.795,2.795,0,6.25,0  C9.705,0,12.5,2.795,12.5,6.25z"/>
<rect x="25" style="fill:#010101;" width="75" height="12.5"/>
<path style="fill:#010101;" d="M12.5,56.25c0,3.455-2.795,6.25-6.25,6.25C2.795,62.5,0,59.705,0,56.25S2.795,50,6.25,50  C9.705,50,12.5,52.795,12.5,56.25z"/>
<rect x="25" y="50" style="fill:#010101;" width="75" height="12.5"/>
<path style="fill:#010101;" d="M12.5,31.25c0,3.455-2.795,6.25-6.25,6.25C2.795,37.5,0,34.705,0,31.25S2.795,25,6.25,25  C9.705,25,12.5,27.795,12.5,31.25z"/>
<path style="fill:#010101;" d="M12.5,81.25c0,3.455-2.795,6.25-6.25,6.25C2.795,87.5,0,84.705,0,81.25S2.795,75,6.25,75  C9.705,75,12.5,77.795,12.5,81.25z"/>
<rect x="25" y="25" style="fill:#010101;" width="75" height="12.5"/>
<rect x="25" y="75" style="fill:#010101;" width="75" height="12.5"/>
</svg>
