<svg xmlns="http://www.w3.org/2000/svg" xmlns:xlink="http://www.w3.org/1999/xlink" version="1.1" id="Layer_1" x="0px" y="0px" width="100px" height="63.62px" viewBox="0 0 100 63.62" enable-background="new 0 0 100 63.62" xml:space="preserve">
<path d="M40.592,41.293V23.226c0-4.67,3.617-8.457,8.079-8.457h17.675v-4.307C66.346,4.685,61.868,0,56.35,0H9.996  C4.477,0,0,4.685,0,10.463v22.354c0,5.777,4.477,10.463,9.996,10.463h7.649c0,4.115,0,8.234,0,12.352  c0,0.682,0.936,1.162,1.422,0.59c3.645-4.314,7.287-8.627,10.933-12.941h10.825C40.677,42.641,40.592,41.979,40.592,41.293z"/>
<path d="M45.178,26.205v20.168c0,4.211,3.263,7.627,7.289,7.627h19.21c2.658,3.145,5.313,6.289,7.97,9.434  c0.354,0.42,1.036,0.068,1.036-0.428c0-3.002,0-6.004,0-9.006h12.029c4.025,0,7.288-3.416,7.288-7.627V26.205  c0-4.212-3.263-7.629-7.288-7.629H52.467C48.441,18.576,45.178,21.992,45.178,26.205z"/>
</svg>