<svg xmlns="http://www.w3.org/2000/svg" xmlns:xlink="http://www.w3.org/1999/xlink" version="1.1" id="Layer_1" x="0px" y="0px" width="100px" height="100px" viewBox="0 0 100 100" enable-background="new 0 0 100 100" xml:space="preserve">
<path d="M0,0v100h100V0H0z M93.164,39.662H66.55V25.469h2.396h24.219V39.662z M64.499,58.308H35.501V41.706h28.998V58.308z   M35.501,39.662V25.469h2.389h24.219h2.39v14.193H35.501z M31.055,25.469h2.396v14.193H6.836V25.469H31.055z M33.451,41.706v16.602  H6.836V41.706H33.451z M6.836,60.352h26.615v16.575H6.836V60.352z M35.501,60.352h28.998v16.575H35.501V60.352z M66.55,60.352  h26.614v16.575H66.55V60.352z M66.55,58.308V41.706h26.614v16.602H66.55z M6.836,93.164v-14.18h26.615v14.18H6.836z M35.501,93.164  v-14.18h28.998v14.18H35.501z M66.55,78.984h26.614v14.18H66.55V78.984z"/>
</svg>
